<svg height="512pt" viewBox="-63 0 511 512" width="512pt" xmlns="http://www.w3.org/2000/svg"><path d="m342.351562 53.367188h-298.664062l-27.0625 57.796874c-5.679688 12.132813-8.625 25.363282-8.625 38.761719v315.941407c0 21.335937 17.296875 38.632812 38.632812 38.632812h292.769532c21.335937 0 38.632812-17.296875 38.632812-38.632812v-315.941407c0-13.398437-2.945312-26.628906-8.625-38.765625zm0 0" fill="#ff646f"/><path d="m369.410156 111.164062-27.058594-57.796874h-31.320312l27.0625 57.796874c5.679688 12.132813 8.625 25.363282 8.625 38.761719v315.941407c0 21.335937-17.296875 38.632812-38.632812 38.632812h31.316406c21.335937 0 38.632812-17.296875 38.632812-38.632812v-315.941407c0-13.398437-2.945312-26.628906-8.625-38.761719zm0 0" fill="#ff4755"/><path d="m88.070312 173.742188v248.09375c0 9.769531 7.921876 17.691406 17.691407 17.691406h272.273437v-283.476563h-272.273437c-9.769531 0-17.691407 7.921875-17.691407 17.691407zm0 0" fill="#fff5f5"/><path d="m346.71875 156.050781h31.316406v283.476563h-31.316406zm0 0" fill="#efe2dd"/><path d="m359.996094 71.398438h-333.957032c-9.964843 0-18.039062-8.074219-18.039062-18.035157v-27.824219c0-9.964843 8.074219-18.039062 18.039062-18.039062h333.957032c9.964844 0 18.039062 8.074219 18.039062 18.039062v27.824219c0 9.960938-8.074218 18.035157-18.039062 18.035157zm0 0" fill="#c9f0ff"/><path d="m359.996094 7.5h-31.648438c9.960938 0 18.039063 8.074219 18.039063 18.039062v45.859376h13.609375c9.964844 0 18.039062-8.074219 18.039062-18.035157v-27.824219c0-9.964843-8.074218-18.039062-18.039062-18.039062zm0 0" fill="#a7e8f1"/><path d="m182.886719 217.183594c-39.960938 39.960937-45.121094 113.367187-44.871094 151.453125.09375 13.972656 11.417969 25.296875 25.390625 25.390625 38.085938.253906 111.496094-4.910156 151.453125-44.867188 27.785156-27.785156 10.171875-76.164062-22.820313-109.15625-32.992187-32.992187-81.371093-50.605468-109.152343-22.820312zm0 0" fill="#ff646f"/><path d="m292.039062 240.003906c-3.738281-3.738281-7.671874-7.273437-11.75-10.570312 25.824219 31.9375 36.886719 72.765625 12.246094 97.402344-39.957031 39.960937-113.363281 45.121093-151.453125 44.867187-.972656-.003906-1.933593-.070313-2.878906-.183594 1.503906 12.613281 12.203125 22.421875 25.203125 22.507813 38.085938.25 111.492188-4.910156 151.453125-44.871094 27.78125-27.78125 10.171875-76.160156-22.820313-109.152344zm0 0" fill="#ff4755"/><path d="m294.136719 238.136719s0 .003906-.003907.007812v-.003906h-.003906c.003906-.003906.007813-.003906.007813-.003906-33.609375-45.582031-63.042969-46.152344-76.75-42.984375-4.285157.992187-6.136719 6.058594-3.535157 9.605468 7.179688 9.796876 21.589844 27.632813 35.351563 33.878907 3.179687 1.441406 6.53125 2.394531 9.90625 2.984375-3.1875 8.6875-2.820313 20.980468-2.28125 27.792968.238281 2.980469 2.578125 5.351563 5.554687 5.625 6.804688.625 19.09375 1.152344 27.820313-1.925781.542969 3.386719 1.453125 6.746094 2.859375 9.949219 6.066406 13.839844 23.714844 28.472656 33.417969 35.78125 3.511719 2.644531 8.605469.863281 9.648437-3.410156 3.34375-13.664063 3.152344-43.105469-41.992187-77.296875zm0 0" fill="#d2f29f"/><path d="m385.535156 53.363281v-27.824219c0-14.082031-11.457031-25.539062-25.539062-25.539062h-333.957032c-14.082031 0-25.539062 11.457031-25.539062 25.539062v27.824219c0 13.226563 10.109375 24.136719 23.007812 25.414063-8.820312 21.757812-23.007812 39.382812-23.007812 71.148437v315.941407c0 25.4375 20.695312 46.132812 46.132812 46.132812h292.769532c25.4375 0 46.132812-20.695312 46.132812-46.132812v-315.941407c0-31.8125-14.132812-49.265625-23.007812-71.152343 12.898437-1.273438 23.007812-12.183594 23.007812-25.410157zm-15 378.664063h-264.773437c-5.617188 0-10.191407-4.570313-10.191407-10.191406v-248.09375c0-5.621094 4.574219-10.191407 10.191407-10.191407h264.773437zm0-378.664063c0 5.8125-4.726562 10.539063-10.539062 10.539063h-256.058594c-9.914062 0-9.929688 15 0 15h242.085938c11.957031 28.480468 24.046874 42.609375 24.5 69.648437h-264.761719c-13.890625 0-25.191407 11.300781-25.191407 25.191407v248.09375c0 13.890624 11.300782 25.191406 25.191407 25.191406h264.773437v18.839844c0 17.164062-13.964844 31.132812-31.132812 31.132812h-292.765625c-17.167969 0-31.136719-13.96875-31.136719-31.132812v-315.941407c0-28 12.8125-42.957031 24.511719-71.027343h33.691406c9.917969 0 9.929687-15 0-15h-47.664063c-5.8125 0-10.539062-4.726563-10.539062-10.535157v-27.824219c0-5.8125 4.726562-10.539062 10.539062-10.539062h333.957032c5.8125 0 10.539062 4.726562 10.539062 10.539062zm0 0"/><path d="m250.003906 247.015625c-1.355468 7.886719-1.167968 16.453125-.652344 22.992187.527344 6.632813 5.71875 11.890626 12.339844 12.5 6.535156.601563 15.09375.898438 23-.355468 5.429688 16.460937 23.359375 32.199218 37.277344 42.683594 7.828125 5.894531 19.125 1.859374 21.445312-7.617188 3.753907-15.339844 3.425782-45.496094-38.082031-79.789062 11.640625-10.753907 18.863281-11.710938 29.203125-4.667969 8.191406 5.585937 16.652344-6.804688 8.445313-12.394531-20.203125-13.769532-35.640625-5.265626-48.167969 6.363281-33.6875-41.730469-63.757812-42.433594-79.117188-38.882813-9.53125 2.203125-13.675781 13.457032-7.890624 21.34375 10.292968 14.042969 25.808593 32.183594 42.199218 37.824219zm37.875-4.734375c2.25 3.398438 48.050782 32.910156 41.410156 69.277344-12.730468-9.792969-29.160156-23.992188-31.683593-39.636719-.742188-4.613281-5.484375-7.4375-9.894531-5.882813-5.222657 1.84375-13.738282 2.429688-23.488282 1.628907-1.632812-23.734375 4.824219-23.832031 1.382813-29.796875-4.84375-8.402344-13.925781 4.914062-44.433594-35.832032 13.175781-2.226562 37.683594 1.039063 66.707031 40.242188zm0 0"/><path d="m163.355469 401.527344c52.765625.355468 122.746093-10.015625 158.390625-48.714844 6.722656-7.289062-4.296875-17.46875-11.027344-10.167969-32.359375 35.042969-97.785156 44.210938-147.265625 43.882813-9.824219-.066406-17.871094-8.113282-17.9375-17.9375-.316406-47.699219 8.917969-117.039063 44.839844-148.121094 7.496093-6.488281-2.304688-17.839844-9.8125-11.34375-39.453125 34.136719-50.382813 105.816406-50.027344 159.5625.121094 17.988281 14.851563 32.71875 32.839844 32.839844zm0 0"/><path d="m209.28125 286.070312-5.597656 3.117188c-8.671875 4.828125-1.371094 17.929688 7.296875 13.105469l5.597656-3.117188c8.660156-4.824219 1.382813-17.933593-7.296875-13.105469zm0 0"/><path d="m162.816406 322.183594-3.117187 5.597656c-4.828125 8.667969 8.273437 15.972656 13.105469 7.296875l3.117187-5.597656c4.824219-8.664063-8.273437-15.972657-13.105469-7.296875zm0 0"/><path d="m273.351562 312.933594-3.117187 5.597656c-4.828125 8.667969 8.273437 15.972656 13.105469 7.296875l3.117187-5.597656c4.824219-8.664063-8.273437-15.972657-13.105469-7.296875zm0 0"/><path d="m232.429688 356.808594.679687-5.636719c1.179687-9.851563-13.710937-11.648437-14.894531-1.789063l-.675782 5.636719c-1.183593 9.847657 13.707032 11.648438 14.890626 1.789063zm0 0"/><path d="m203.894531 252.28125c.785157 0 .84375-.0625 6.539063-.730469 9.84375-1.183593 8.074218-16.074219-1.785156-14.894531l-5.636719.675781c-9.324219 1.121094-8.441407 14.949219.882812 14.949219zm0 0"/></svg>